<?xml version="1.0" encoding="utf-8"?>
<!-- Generator: Adobe Illustrator 22.1.0, SVG Export Plug-In . SVG Version: 6.00 Build 0)  -->
<svg version="1.1" id="Layer_1" xmlns="http://www.w3.org/2000/svg" xmlns:xlink="http://www.w3.org/1999/xlink" x="0px" y="0px"
	 viewBox="0 0 203.1 194.9" style="enable-background:new 0 0 203.1 194.9;" xml:space="preserve">
<style type="text/css">
	.st0{fill:#56A0D3;}
	.st1{fill:#15397F;}
	.st2{fill:#FFFFFF;}
</style>
<path class="st0" d="M16.1,100.5C16.1,100.5,16.1,100.5,16.1,100.5L18,109l0,0C79,79.8,134.3,73.4,191.6,79.8l1.4-6.4
	C132.9,66.6,77.2,71.7,16.1,100.5z"/>
<path class="st0" d="M197.3,54.3l5.9-26.6h-57.6L152.1,0h-101l6.5,27.7H0l5.9,26.7c0,0,0,0,0,0C68.9,37.3,124.9,35.7,197.3,54.3z"/>
<path class="st1" d="M31.9,172.1C31.9,172.1,31.9,172.1,31.9,172.1l5,22.9h129.2l21.2-96.1c0,0,0,0,0,0
	C141.4,105,91.6,127.6,31.9,172.1z"/>
<path class="st0" d="M23.6,134.7l1.9,8.5c59.7-37.1,113.3-49.1,163.3-50.7l1.4-6.4c0,0,0,0,0,0C137.2,87.1,83.8,97.3,23.6,134.7z"/>
<path class="st0" d="M9.5,70.8l1.9,8.5c62.4-21.7,118.5-24.1,183-12.3c0,0,0,0,0,0l1.4-6.4C128.1,48.8,71.6,49.3,9.5,70.8z"/>
<path class="st2" d="M5.9,54.3C5.9,54.3,5.9,54.3,5.9,54.3l3.6,16.5c62.1-21.6,118.6-22,186.3-10.1l1.4-6.4
	C124.9,35.7,68.9,37.3,5.9,54.3z"/>
<path class="st2" d="M11.4,79.3l4.7,21.2c0,0,0,0,0,0C77.2,71.7,132.9,66.6,193,73.4l1.4-6.3c0,0,0,0,0,0
	C129.9,55.2,73.8,57.6,11.4,79.3z"/>
<path class="st2" d="M18,109L18,109l5.7,25.7c60.2-37.4,113.5-47.6,166.6-48.6c0,0,0,0,0,0l1.4-6.3C134.3,73.4,79,79.8,18,109z"/>
<path class="st2" d="M31.9,172.1C31.9,172.1,31.9,172.1,31.9,172.1c59.7-44.4,109.5-67,155.5-73.2c0,0,0,0,0,0l1.4-6.4
	c-50,1.6-103.6,13.6-163.3,50.7L31.9,172.1z"/>
</svg>
